<svg xmlns="http://www.w3.org/2000/svg" xmlns:xlink="http://www.w3.org/1999/xlink" version="1.1"><defs><symbol id="icon-menu" viewBox="0 0 1024 1024"><path class="path1" d="M128 213.333h768q17.667 0 30.167 12.5t12.5 30.167-12.5 30.167-30.167 12.5h-768q-17.667 0-30.167-12.5t-12.5-30.167 12.5-30.167 30.167-12.5zM128 725.333h768q17.667 0 30.167 12.5t12.5 30.167-12.5 30.167-30.167 12.5h-768q-17.667 0-30.167-12.5t-12.5-30.167 12.5-30.167 30.167-12.5zM128 469.333h768q17.667 0 30.167 12.5t12.5 30.167-12.5 30.167-30.167 12.5h-768q-17.667 0-30.167-12.5t-12.5-30.167 12.5-30.167 30.167-12.5z"/></symbol></defs></svg>
